<svg id="Layer_1" data-name="Layer 1" xmlns="http://www.w3.org/2000/svg" viewBox="0 0 500 500"><defs><style>.cls-1{fill:#fff;}.cls-2{fill:#4d4c4d;}.cls-3{opacity:0.15;}.cls-4{fill:none;stroke:#000;stroke-linecap:round;stroke-linejoin:round;stroke-width:20px;}</style></defs><title>soccer</title><path class="cls-1" d="M250.83,486.7c130.5,0,236.29-105.79,236.29-236.29S381.33,14.13,250.83,14.13,14.55,119.92,14.55,250.41,120.34,486.7,250.83,486.7Z"/><path class="cls-2" d="M447.83,380.85a235.15,235.15,0,0,0,39.29-130.44c0-5.07-.22-10.08-.53-15.07l-69.77,51Z"/><path class="cls-2" d="M344.64,33.53l15.18,78.27,89.87,11.07A237,237,0,0,0,344.64,33.53Z"/><path class="cls-2" d="M336.16,470.75,252.49,412.8l-79.65,60.66a236.27,236.27,0,0,0,163.32-2.71Z"/><path class="cls-3" d="M382.13,54A235.14,235.14,0,0,1,422,185.25c0,130.49-105.79,236.28-236.28,236.28a235.14,235.14,0,0,1-131.3-39.82,236.06,236.06,0,0,0,196.46,105c130.5,0,236.29-105.79,236.29-236.29A236.06,236.06,0,0,0,382.13,54Z"/><polygon class="cls-2" points="250.83 338.16 158.56 271.13 193.81 162.66 307.86 162.66 343.1 271.13 250.83 338.16"/><path class="cls-2" d="M170.76,28.07a236.85,236.85,0,0,0-114.62,88.5l96.15-8.43Z"/><path class="cls-2" d="M84.84,286.33l-69.76-51c-.32,5-.53,10-.53,15.07A235.14,235.14,0,0,0,53.83,380.85Z"/><line class="cls-4" x1="193.81" y1="162.66" x2="154.66" y2="111.36"/><line class="cls-4" x1="307.86" y1="162.66" x2="359.82" y2="111.8"/><line class="cls-4" x1="158.56" y1="271.13" x2="84.84" y2="286.33"/><line class="cls-4" x1="343.1" y1="271.13" x2="416.82" y2="286.33"/><line class="cls-4" x1="250.83" y1="338.16" x2="250.83" y2="412.8"/><polygon class="cls-4" points="250.83 338.16 158.56 271.13 193.81 162.66 307.86 162.66 343.1 271.13 250.83 338.16"/><path class="cls-4" d="M170.76,28.07a236.85,236.85,0,0,0-114.62,88.5l96.15-8.43Z"/><path class="cls-4" d="M344.64,33.53l15.18,78.27,89.87,11.07A237,237,0,0,0,344.64,33.53Z"/><path class="cls-4" d="M336.16,470.75,252.49,412.8l-79.65,60.66a236.27,236.27,0,0,0,163.32-2.71Z"/><path class="cls-4" d="M84.84,286.33l-69.76-51c-.32,5-.53,10-.53,15.07A235.14,235.14,0,0,0,53.83,380.85Z"/><path class="cls-4" d="M447.83,380.85a235.15,235.15,0,0,0,39.29-130.44c0-5.07-.22-10.08-.53-15.07l-69.77,51Z"/><path class="cls-4" d="M250.83,486.7c130.5,0,236.29-105.79,236.29-236.29S381.33,14.13,250.83,14.13,14.55,119.92,14.55,250.41,120.34,486.7,250.83,486.7Z"/></svg>